ISO-10303-21;
HEADER;
/* Generated by software containing ST-Developer
 * from STEP Tools, Inc. (www.steptools.com) 
 */
/* OPTION: using custom renumber hook */

FILE_DESCRIPTION(
/* description */ ('STEP AP242 Edition 2',
'CAx-IF Rec.Pracs.---Representation and Presentation of Product Manufa
cturing Information (PMI)---4.0---2014-10-13',
'CAx-IF Rec.Pracs.---3D Tessellated Geometry---0.4---2014-09-14','2;1',
'CAx-IF Rec.Pracs.---User Defined Attributes---1.5---2016-08-15'),
/* implementation_level */ '2;1');

FILE_NAME(
/* name */ 'Part Studio 1 - Part 1',
/* time_stamp */ '2026-09-27T23:15:17Z',
/* author */ (''),
/* organization */ (''),
/* preprocessor_version */ 'ST-DEVELOPER v20',
/* originating_system */ 'ONSHAPE BY PTC INC, 1.221',
/* authorisation */ '  ');

FILE_SCHEMA (('AP242_MANAGED_MODEL_BASED_3D_ENGINEERING_MIM_LF { 1 0 10303 442 3 1 4 }'));
ENDSEC;

DATA;
#10=SHAPE_REPRESENTATION_RELATIONSHIP('','',#867,#11);
#11=ADVANCED_BREP_SHAPE_REPRESENTATION('',(#865),#1463);
#12=CONICAL_SURFACE('',#942,0.003,0.78539816339745);
#13=CONICAL_SURFACE('',#944,0.003,0.785398163397448);
#14=CONICAL_SURFACE('',#946,0.013,0.78539816339745);
#15=CONICAL_SURFACE('',#948,0.003,0.785398163397446);
#16=CONICAL_SURFACE('',#950,0.003,0.785398163397446);
#17=CONICAL_SURFACE('',#952,0.012,0.78539816339745);
#18=CONICAL_SURFACE('',#954,0.003,0.785398163397446);
#19=CONICAL_SURFACE('',#955,0.003,0.785398163397446);
#20=CONICAL_SURFACE('',#959,0.005,0.785398163397446);
#21=CONICAL_SURFACE('',#960,0.005,0.785398163397449);
#22=CONICAL_SURFACE('',#961,0.005,0.785398163397446);
#23=CONICAL_SURFACE('',#962,0.005,0.785398163397449);
#24=CYLINDRICAL_SURFACE('',#879,0.012);
#25=CYLINDRICAL_SURFACE('',#905,0.00125);
#26=CYLINDRICAL_SURFACE('',#908,0.00125);
#27=CYLINDRICAL_SURFACE('',#911,0.00125);
#28=CYLINDRICAL_SURFACE('',#914,0.00125);
#29=CYLINDRICAL_SURFACE('',#915,0.005);
#30=CYLINDRICAL_SURFACE('',#919,0.005);
#31=CYLINDRICAL_SURFACE('',#923,0.005);
#32=CYLINDRICAL_SURFACE('',#927,0.005);
#33=CYLINDRICAL_SURFACE('',#931,0.004);
#34=CYLINDRICAL_SURFACE('',#934,0.004);
#35=CYLINDRICAL_SURFACE('',#937,0.004);
#36=CYLINDRICAL_SURFACE('',#939,0.004);
#37=CIRCLE('',#870,0.003);
#38=CIRCLE('',#871,0.003);
#39=CIRCLE('',#873,0.00125);
#40=CIRCLE('',#874,0.00125);
#41=CIRCLE('',#875,0.00125);
#42=CIRCLE('',#876,0.00125);
#43=CIRCLE('',#877,0.004);
#44=CIRCLE('',#878,0.004);
#45=CIRCLE('',#880,0.012);
#46=CIRCLE('',#881,0.012);
#47=CIRCLE('',#884,0.006);
#48=CIRCLE('',#885,0.006);
#49=CIRCLE('',#886,0.006);
#50=CIRCLE('',#887,0.006);
#51=CIRCLE('',#888,0.003);
#52=CIRCLE('',#889,0.003);
#53=CIRCLE('',#892,0.003);
#54=CIRCLE('',#893,0.003);
#55=CIRCLE('',#895,0.013);
#56=CIRCLE('',#897,0.013);
#57=CIRCLE('',#904,0.00125);
#58=CIRCLE('',#907,0.00125);
#59=CIRCLE('',#910,0.00125);
#60=CIRCLE('',#913,0.00125);
#61=CIRCLE('',#916,0.005);
#62=CIRCLE('',#917,0.005);
#63=CIRCLE('',#920,0.005);
#64=CIRCLE('',#921,0.005);
#65=CIRCLE('',#924,0.005);
#66=CIRCLE('',#925,0.005);
#67=CIRCLE('',#928,0.005);
#68=CIRCLE('',#929,0.005);
#69=CIRCLE('',#932,0.004);
#70=CIRCLE('',#933,0.004);
#71=CIRCLE('',#935,0.004);
#72=CIRCLE('',#936,0.004);
#73=CIRCLE('',#938,0.004);
#74=CIRCLE('',#940,0.004);
#75=ORIENTED_EDGE('',*,*,#291,.T.);
#76=ORIENTED_EDGE('',*,*,#292,.T.);
#77=ORIENTED_EDGE('',*,*,#293,.T.);
#78=ORIENTED_EDGE('',*,*,#294,.T.);
#79=ORIENTED_EDGE('',*,*,#295,.T.);
#80=ORIENTED_EDGE('',*,*,#296,.T.);
#81=ORIENTED_EDGE('',*,*,#297,.T.);
#82=ORIENTED_EDGE('',*,*,#298,.T.);
#83=ORIENTED_EDGE('',*,*,#299,.F.);
#84=ORIENTED_EDGE('',*,*,#300,.F.);
#85=ORIENTED_EDGE('',*,*,#301,.T.);
#86=ORIENTED_EDGE('',*,*,#302,.T.);
#87=ORIENTED_EDGE('',*,*,#303,.T.);
#88=ORIENTED_EDGE('',*,*,#304,.T.);
#89=ORIENTED_EDGE('',*,*,#305,.T.);
#90=ORIENTED_EDGE('',*,*,#306,.T.);
#91=ORIENTED_EDGE('',*,*,#307,.T.);
#92=ORIENTED_EDGE('',*,*,#308,.F.);
#93=ORIENTED_EDGE('',*,*,#309,.F.);
#94=ORIENTED_EDGE('',*,*,#310,.T.);
#95=ORIENTED_EDGE('',*,*,#311,.F.);
#96=ORIENTED_EDGE('',*,*,#312,.T.);
#97=ORIENTED_EDGE('',*,*,#313,.T.);
#98=ORIENTED_EDGE('',*,*,#314,.F.);
#99=ORIENTED_EDGE('',*,*,#315,.F.);
#100=ORIENTED_EDGE('',*,*,#316,.T.);
#101=ORIENTED_EDGE('',*,*,#317,.T.);
#102=ORIENTED_EDGE('',*,*,#318,.T.);
#103=ORIENTED_EDGE('',*,*,#319,.T.);
#104=ORIENTED_EDGE('',*,*,#320,.T.);
#105=ORIENTED_EDGE('',*,*,#321,.T.);
#106=ORIENTED_EDGE('',*,*,#305,.F.);
#107=ORIENTED_EDGE('',*,*,#322,.T.);
#108=ORIENTED_EDGE('',*,*,#323,.T.);
#109=ORIENTED_EDGE('',*,*,#324,.T.);
#110=ORIENTED_EDGE('',*,*,#325,.T.);
#111=ORIENTED_EDGE('',*,*,#326,.T.);
#112=ORIENTED_EDGE('',*,*,#327,.T.);
#113=ORIENTED_EDGE('',*,*,#328,.T.);
#114=ORIENTED_EDGE('',*,*,#329,.T.);
#115=ORIENTED_EDGE('',*,*,#330,.T.);
#116=ORIENTED_EDGE('',*,*,#331,.T.);
#117=ORIENTED_EDGE('',*,*,#332,.T.);
#118=ORIENTED_EDGE('',*,*,#333,.T.);
#119=ORIENTED_EDGE('',*,*,#334,.T.);
#120=ORIENTED_EDGE('',*,*,#335,.T.);
#121=ORIENTED_EDGE('',*,*,#317,.F.);
#122=ORIENTED_EDGE('',*,*,#336,.T.);
#123=ORIENTED_EDGE('',*,*,#337,.T.);
#124=ORIENTED_EDGE('',*,*,#338,.T.);
#125=ORIENTED_EDGE('',*,*,#339,.T.);
#126=ORIENTED_EDGE('',*,*,#340,.T.);
#127=ORIENTED_EDGE('',*,*,#341,.T.);
#128=ORIENTED_EDGE('',*,*,#342,.T.);
#129=ORIENTED_EDGE('',*,*,#343,.T.);
#130=ORIENTED_EDGE('',*,*,#344,.T.);
#131=ORIENTED_EDGE('',*,*,#345,.T.);
#132=ORIENTED_EDGE('',*,*,#346,.F.);
#133=ORIENTED_EDGE('',*,*,#307,.F.);
#134=ORIENTED_EDGE('',*,*,#347,.T.);
#135=ORIENTED_EDGE('',*,*,#348,.T.);
#136=ORIENTED_EDGE('',*,*,#349,.T.);
#137=ORIENTED_EDGE('',*,*,#350,.T.);
#138=ORIENTED_EDGE('',*,*,#351,.T.);
#139=ORIENTED_EDGE('',*,*,#309,.T.);
#140=ORIENTED_EDGE('',*,*,#352,.T.);
#141=ORIENTED_EDGE('',*,*,#353,.T.);
#142=ORIENTED_EDGE('',*,*,#354,.T.);
#143=ORIENTED_EDGE('',*,*,#346,.T.);
#144=ORIENTED_EDGE('',*,*,#355,.T.);
#145=ORIENTED_EDGE('',*,*,#315,.T.);
#146=ORIENTED_EDGE('',*,*,#356,.T.);
#147=ORIENTED_EDGE('',*,*,#352,.F.);
#148=ORIENTED_EDGE('',*,*,#308,.T.);
#149=ORIENTED_EDGE('',*,*,#311,.T.);
#150=ORIENTED_EDGE('',*,*,#357,.T.);
#151=ORIENTED_EDGE('',*,*,#297,.F.);
#152=ORIENTED_EDGE('',*,*,#358,.F.);
#153=ORIENTED_EDGE('',*,*,#358,.T.);
#154=ORIENTED_EDGE('',*,*,#300,.T.);
#155=ORIENTED_EDGE('',*,*,#359,.F.);
#156=ORIENTED_EDGE('',*,*,#312,.F.);
#157=ORIENTED_EDGE('',*,*,#359,.T.);
#158=ORIENTED_EDGE('',*,*,#299,.T.);
#159=ORIENTED_EDGE('',*,*,#360,.F.);
#160=ORIENTED_EDGE('',*,*,#313,.F.);
#161=ORIENTED_EDGE('',*,*,#314,.T.);
#162=ORIENTED_EDGE('',*,*,#360,.T.);
#163=ORIENTED_EDGE('',*,*,#298,.F.);
#164=ORIENTED_EDGE('',*,*,#357,.F.);
#165=ORIENTED_EDGE('',*,*,#361,.F.);
#166=ORIENTED_EDGE('',*,*,#361,.T.);
#167=ORIENTED_EDGE('',*,*,#304,.F.);
#168=ORIENTED_EDGE('',*,*,#362,.F.);
#169=ORIENTED_EDGE('',*,*,#362,.T.);
#170=ORIENTED_EDGE('',*,*,#303,.F.);
#171=ORIENTED_EDGE('',*,*,#363,.F.);
#172=ORIENTED_EDGE('',*,*,#363,.T.);
#173=ORIENTED_EDGE('',*,*,#302,.F.);
#174=ORIENTED_EDGE('',*,*,#364,.F.);
#175=ORIENTED_EDGE('',*,*,#364,.T.);
#176=ORIENTED_EDGE('',*,*,#301,.F.);
#177=ORIENTED_EDGE('',*,*,#365,.T.);
#178=ORIENTED_EDGE('',*,*,#366,.F.);
#179=ORIENTED_EDGE('',*,*,#366,.T.);
#180=ORIENTED_EDGE('',*,*,#367,.T.);
#181=ORIENTED_EDGE('',*,*,#368,.F.);
#182=ORIENTED_EDGE('',*,*,#368,.T.);
#183=ORIENTED_EDGE('',*,*,#369,.T.);
#184=ORIENTED_EDGE('',*,*,#370,.F.);
#185=ORIENTED_EDGE('',*,*,#370,.T.);
#186=ORIENTED_EDGE('',*,*,#371,.T.);
#187=ORIENTED_EDGE('',*,*,#372,.F.);
#188=ORIENTED_EDGE('',*,*,#372,.T.);
#189=ORIENTED_EDGE('',*,*,#334,.F.);
#190=ORIENTED_EDGE('',*,*,#373,.T.);
#191=ORIENTED_EDGE('',*,*,#348,.F.);
#192=ORIENTED_EDGE('',*,*,#374,.T.);
#193=ORIENTED_EDGE('',*,*,#343,.F.);
#194=ORIENTED_EDGE('',*,*,#375,.T.);
#195=ORIENTED_EDGE('',*,*,#332,.F.);
#196=ORIENTED_EDGE('',*,*,#376,.T.);
#197=ORIENTED_EDGE('',*,*,#321,.F.);
#198=ORIENTED_EDGE('',*,*,#377,.T.);
#199=ORIENTED_EDGE('',*,*,#347,.F.);
#200=ORIENTED_EDGE('',*,*,#306,.F.);
#201=ORIENTED_EDGE('',*,*,#351,.F.);
#202=ORIENTED_EDGE('',*,*,#378,.T.);
#203=ORIENTED_EDGE('',*,*,#319,.F.);
#204=ORIENTED_EDGE('',*,*,#310,.F.);
#205=ORIENTED_EDGE('',*,*,#293,.F.);
#206=ORIENTED_EDGE('',*,*,#379,.T.);
#207=ORIENTED_EDGE('',*,*,#380,.T.);
#208=ORIENTED_EDGE('',*,*,#341,.F.);
#209=ORIENTED_EDGE('',*,*,#381,.F.);
#210=ORIENTED_EDGE('',*,*,#381,.T.);
#211=ORIENTED_EDGE('',*,*,#377,.F.);
#212=ORIENTED_EDGE('',*,*,#382,.F.);
#213=ORIENTED_EDGE('',*,*,#294,.F.);
#214=ORIENTED_EDGE('',*,*,#382,.T.);
#215=ORIENTED_EDGE('',*,*,#320,.F.);
#216=ORIENTED_EDGE('',*,*,#383,.F.);
#217=ORIENTED_EDGE('',*,*,#295,.F.);
#218=ORIENTED_EDGE('',*,*,#383,.T.);
#219=ORIENTED_EDGE('',*,*,#378,.F.);
#220=ORIENTED_EDGE('',*,*,#384,.F.);
#221=ORIENTED_EDGE('',*,*,#296,.F.);
#222=ORIENTED_EDGE('',*,*,#385,.T.);
#223=ORIENTED_EDGE('',*,*,#386,.T.);
#224=ORIENTED_EDGE('',*,*,#291,.F.);
#225=ORIENTED_EDGE('',*,*,#384,.T.);
#226=ORIENTED_EDGE('',*,*,#350,.F.);
#227=ORIENTED_EDGE('',*,*,#356,.F.);
#228=ORIENTED_EDGE('',*,*,#318,.F.);
#229=ORIENTED_EDGE('',*,*,#387,.F.);
#230=ORIENTED_EDGE('',*,*,#353,.F.);
#231=ORIENTED_EDGE('',*,*,#387,.T.);
#232=ORIENTED_EDGE('',*,*,#340,.F.);
#233=ORIENTED_EDGE('',*,*,#388,.F.);
#234=ORIENTED_EDGE('',*,*,#354,.F.);
#235=ORIENTED_EDGE('',*,*,#388,.T.);
#236=ORIENTED_EDGE('',*,*,#339,.F.);
#237=ORIENTED_EDGE('',*,*,#389,.F.);
#238=ORIENTED_EDGE('',*,*,#374,.F.);
#239=ORIENTED_EDGE('',*,*,#389,.T.);
#240=ORIENTED_EDGE('',*,*,#338,.F.);
#241=ORIENTED_EDGE('',*,*,#390,.F.);
#242=ORIENTED_EDGE('',*,*,#335,.F.);
#243=ORIENTED_EDGE('',*,*,#390,.T.);
#244=ORIENTED_EDGE('',*,*,#337,.F.);
#245=ORIENTED_EDGE('',*,*,#391,.F.);
#246=ORIENTED_EDGE('',*,*,#376,.F.);
#247=ORIENTED_EDGE('',*,*,#391,.T.);
#248=ORIENTED_EDGE('',*,*,#336,.F.);
#249=ORIENTED_EDGE('',*,*,#392,.F.);
#250=ORIENTED_EDGE('',*,*,#344,.F.);
#251=ORIENTED_EDGE('',*,*,#355,.F.);
#252=ORIENTED_EDGE('',*,*,#345,.F.);
#253=ORIENTED_EDGE('',*,*,#392,.T.);
#254=ORIENTED_EDGE('',*,*,#316,.F.);
#255=ORIENTED_EDGE('',*,*,#393,.F.);
#256=ORIENTED_EDGE('',*,*,#333,.F.);
#257=ORIENTED_EDGE('',*,*,#394,.F.);
#258=ORIENTED_EDGE('',*,*,#330,.F.);
#259=ORIENTED_EDGE('',*,*,#394,.T.);
#260=ORIENTED_EDGE('',*,*,#375,.F.);
#261=ORIENTED_EDGE('',*,*,#395,.F.);
#262=ORIENTED_EDGE('',*,*,#331,.F.);
#263=ORIENTED_EDGE('',*,*,#393,.T.);
#264=ORIENTED_EDGE('',*,*,#329,.F.);
#265=ORIENTED_EDGE('',*,*,#396,.F.);
#266=ORIENTED_EDGE('',*,*,#373,.F.);
#267=ORIENTED_EDGE('',*,*,#342,.F.);
#268=ORIENTED_EDGE('',*,*,#380,.F.);
#269=ORIENTED_EDGE('',*,*,#397,.F.);
#270=ORIENTED_EDGE('',*,*,#326,.F.);
#271=ORIENTED_EDGE('',*,*,#395,.T.);
#272=ORIENTED_EDGE('',*,*,#396,.T.);
#273=ORIENTED_EDGE('',*,*,#328,.F.);
#274=ORIENTED_EDGE('',*,*,#398,.F.);
#275=ORIENTED_EDGE('',*,*,#385,.F.);
#276=ORIENTED_EDGE('',*,*,#349,.F.);
#277=ORIENTED_EDGE('',*,*,#379,.F.);
#278=ORIENTED_EDGE('',*,*,#292,.F.);
#279=ORIENTED_EDGE('',*,*,#386,.F.);
#280=ORIENTED_EDGE('',*,*,#398,.T.);
#281=ORIENTED_EDGE('',*,*,#327,.F.);
#282=ORIENTED_EDGE('',*,*,#397,.T.);
#283=ORIENTED_EDGE('',*,*,#322,.F.);
#284=ORIENTED_EDGE('',*,*,#367,.F.);
#285=ORIENTED_EDGE('',*,*,#323,.F.);
#286=ORIENTED_EDGE('',*,*,#369,.F.);
#287=ORIENTED_EDGE('',*,*,#324,.F.);
#288=ORIENTED_EDGE('',*,*,#371,.F.);
#289=ORIENTED_EDGE('',*,*,#325,.F.);
#290=ORIENTED_EDGE('',*,*,#365,.F.);
#291=EDGE_CURVE('',#399,#400,#473,.T.);
#292=EDGE_CURVE('',#400,#401,#474,.T.);
#293=EDGE_CURVE('',#401,#402,#475,.T.);
#294=EDGE_CURVE('',#402,#403,#37,.F.);
#295=EDGE_CURVE('',#403,#404,#476,.T.);
#296=EDGE_CURVE('',#404,#399,#38,.F.);
#297=EDGE_CURVE('',#405,#406,#477,.T.);
#298=EDGE_CURVE('',#406,#407,#478,.T.);
#299=EDGE_CURVE('',#408,#407,#479,.T.);
#300=EDGE_CURVE('',#405,#408,#480,.T.);
#301=EDGE_CURVE('',#409,#409,#39,.T.);
#302=EDGE_CURVE('',#410,#410,#40,.T.);
#303=EDGE_CURVE('',#411,#411,#41,.T.);
#304=EDGE_CURVE('',#412,#412,#42,.T.);
#305=EDGE_CURVE('',#413,#414,#481,.T.);
#306=EDGE_CURVE('',#414,#415,#43,.F.);
#307=EDGE_CURVE('',#415,#416,#482,.T.);
#308=EDGE_CURVE('',#417,#416,#483,.T.);
#309=EDGE_CURVE('',#418,#417,#484,.T.);
#310=EDGE_CURVE('',#418,#413,#44,.F.);
#311=EDGE_CURVE('',#419,#420,#485,.T.);
#312=EDGE_CURVE('',#419,#421,#486,.T.);
#313=EDGE_CURVE('',#421,#422,#487,.T.);
#314=EDGE_CURVE('',#420,#422,#488,.T.);
#315=EDGE_CURVE('',#423,#424,#489,.T.);
#316=EDGE_CURVE('',#423,#425,#45,.T.);
#317=EDGE_CURVE('',#425,#426,#490,.T.);
#318=EDGE_CURVE('',#426,#424,#46,.F.);
#319=EDGE_CURVE('',#413,#427,#491,.F.);
#320=EDGE_CURVE('',#427,#428,#492,.T.);
#321=EDGE_CURVE('',#428,#414,#493,.T.);
#322=EDGE_CURVE('',#429,#429,#47,.T.);
#323=EDGE_CURVE('',#430,#430,#48,.T.);
#324=EDGE_CURVE('',#431,#431,#49,.T.);
#325=EDGE_CURVE('',#432,#432,#50,.T.);
#326=EDGE_CURVE('',#433,#434,#494,.T.);
#327=EDGE_CURVE('',#434,#435,#495,.T.);
#328=EDGE_CURVE('',#435,#436,#496,.T.);
#329=EDGE_CURVE('',#436,#437,#51,.F.);
#330=EDGE_CURVE('',#437,#438,#497,.T.);
#331=EDGE_CURVE('',#438,#433,#52,.F.);
#332=EDGE_CURVE('',#439,#440,#498,.F.);
#333=EDGE_CURVE('',#440,#441,#499,.T.);
#334=EDGE_CURVE('',#441,#442,#500,.T.);
#335=EDGE_CURVE('',#442,#439,#501,.T.);
#336=EDGE_CURVE('',#425,#443,#502,.T.);
#337=EDGE_CURVE('',#443,#444,#53,.F.);
#338=EDGE_CURVE('',#444,#445,#503,.T.);
#339=EDGE_CURVE('',#445,#446,#54,.F.);
#340=EDGE_CURVE('',#446,#426,#504,.T.);
#341=EDGE_CURVE('',#447,#448,#505,.T.);
#342=EDGE_CURVE('',#448,#449,#506,.T.);
#343=EDGE_CURVE('',#449,#450,#507,.T.);
#344=EDGE_CURVE('',#450,#451,#508,.T.);
#345=EDGE_CURVE('',#451,#452,#55,.F.);
#346=EDGE_CURVE('',#416,#452,#509,.T.);
#347=EDGE_CURVE('',#415,#447,#510,.F.);
#348=EDGE_CURVE('',#453,#454,#511,.F.);
#349=EDGE_CURVE('',#454,#455,#512,.T.);
#350=EDGE_CURVE('',#455,#456,#513,.T.);
#351=EDGE_CURVE('',#456,#418,#514,.T.);
#352=EDGE_CURVE('',#417,#457,#515,.T.);
#353=EDGE_CURVE('',#457,#458,#56,.T.);
#354=EDGE_CURVE('',#458,#453,#516,.T.);
#355=EDGE_CURVE('',#452,#423,#517,.F.);
#356=EDGE_CURVE('',#424,#457,#518,.F.);
#357=EDGE_CURVE('',#420,#406,#519,.T.);
#358=EDGE_CURVE('',#419,#405,#520,.T.);
#359=EDGE_CURVE('',#421,#408,#521,.T.);
#360=EDGE_CURVE('',#422,#407,#522,.T.);
#361=EDGE_CURVE('',#459,#459,#57,.T.);
#362=EDGE_CURVE('',#460,#460,#58,.T.);
#363=EDGE_CURVE('',#461,#461,#59,.T.);
#364=EDGE_CURVE('',#462,#462,#60,.T.);
#365=EDGE_CURVE('',#463,#463,#61,.F.);
#366=EDGE_CURVE('',#464,#464,#62,.T.);
#367=EDGE_CURVE('',#465,#465,#63,.F.);
#368=EDGE_CURVE('',#466,#466,#64,.T.);
#369=EDGE_CURVE('',#467,#467,#65,.F.);
#370=EDGE_CURVE('',#468,#468,#66,.T.);
#371=EDGE_CURVE('',#469,#469,#67,.F.);
#372=EDGE_CURVE('',#470,#470,#68,.T.);
#373=EDGE_CURVE('',#441,#454,#69,.T.);
#374=EDGE_CURVE('',#453,#442,#70,.T.);
#375=EDGE_CURVE('',#449,#440,#71,.T.);
#376=EDGE_CURVE('',#439,#450,#72,.T.);
#377=EDGE_CURVE('',#428,#447,#73,.T.);
#378=EDGE_CURVE('',#456,#427,#74,.T.);
#379=EDGE_CURVE('',#401,#471,#523,.F.);
#380=EDGE_CURVE('',#471,#448,#524,.T.);
#381=EDGE_CURVE('',#402,#447,#525,.T.);
#382=EDGE_CURVE('',#403,#428,#526,.T.);
#383=EDGE_CURVE('',#404,#427,#527,.T.);
#384=EDGE_CURVE('',#399,#456,#528,.T.);
#385=EDGE_CURVE('',#455,#472,#529,.T.);
#386=EDGE_CURVE('',#472,#400,#530,.T.);
#387=EDGE_CURVE('',#458,#426,#531,.T.);
#388=EDGE_CURVE('',#453,#446,#532,.T.);
#389=EDGE_CURVE('',#442,#445,#533,.T.);
#390=EDGE_CURVE('',#439,#444,#534,.T.);
#391=EDGE_CURVE('',#450,#443,#535,.T.);
#392=EDGE_CURVE('',#451,#425,#536,.T.);
#393=EDGE_CURVE('',#441,#437,#537,.T.);
#394=EDGE_CURVE('',#438,#440,#538,.T.);
#395=EDGE_CURVE('',#433,#449,#539,.T.);
#396=EDGE_CURVE('',#454,#436,#540,.T.);
#397=EDGE_CURVE('',#434,#471,#541,.F.);
#398=EDGE_CURVE('',#472,#435,#542,.F.);
#399=VERTEX_POINT('',#1226);
#400=VERTEX_POINT('',#1227);
#401=VERTEX_POINT('',#1229);
#402=VERTEX_POINT('',#1231);
#403=VERTEX_POINT('',#1233);
#404=VERTEX_POINT('',#1235);
#405=VERTEX_POINT('',#1238);
#406=VERTEX_POINT('',#1239);
#407=VERTEX_POINT('',#1241);
#408=VERTEX_POINT('',#1243);
#409=VERTEX_POINT('',#1247);
#410=VERTEX_POINT('',#1249);
#411=VERTEX_POINT('',#1251);
#412=VERTEX_POINT('',#1253);
#413=VERTEX_POINT('',#1255);
#414=VERTEX_POINT('',#1256);
#415=VERTEX_POINT('',#1258);
#416=VERTEX_POINT('',#1260);
#417=VERTEX_POINT('',#1262);
#418=VERTEX_POINT('',#1264);
#419=VERTEX_POINT('',#1267);
#420=VERTEX_POINT('',#1268);
#421=VERTEX_POINT('',#1270);
#422=VERTEX_POINT('',#1272);
#423=VERTEX_POINT('',#1276);
#424=VERTEX_POINT('',#1277);
#425=VERTEX_POINT('',#1279);
#426=VERTEX_POINT('',#1281);
#427=VERTEX_POINT('',#1285);
#428=VERTEX_POINT('',#1287);
#429=VERTEX_POINT('',#1291);
#430=VERTEX_POINT('',#1293);
#431=VERTEX_POINT('',#1295);
#432=VERTEX_POINT('',#1297);
#433=VERTEX_POINT('',#1299);
#434=VERTEX_POINT('',#1300);
#435=VERTEX_POINT('',#1302);
#436=VERTEX_POINT('',#1304);
#437=VERTEX_POINT('',#1306);
#438=VERTEX_POINT('',#1308);
#439=VERTEX_POINT('',#1312);
#440=VERTEX_POINT('',#1313);
#441=VERTEX_POINT('',#1315);
#442=VERTEX_POINT('',#1317);
#443=VERTEX_POINT('',#1321);
#444=VERTEX_POINT('',#1323);
#445=VERTEX_POINT('',#1325);
#446=VERTEX_POINT('',#1327);
#447=VERTEX_POINT('',#1331);
#448=VERTEX_POINT('',#1332);
#449=VERTEX_POINT('',#1334);
#450=VERTEX_POINT('',#1336);
#451=VERTEX_POINT('',#1338);
#452=VERTEX_POINT('',#1340);
#453=VERTEX_POINT('',#1345);
#454=VERTEX_POINT('',#1346);
#455=VERTEX_POINT('',#1348);
#456=VERTEX_POINT('',#1350);
#457=VERTEX_POINT('',#1353);
#458=VERTEX_POINT('',#1355);
#459=VERTEX_POINT('',#1370);
#460=VERTEX_POINT('',#1374);
#461=VERTEX_POINT('',#1378);
#462=VERTEX_POINT('',#1382);
#463=VERTEX_POINT('',#1386);
#464=VERTEX_POINT('',#1388);
#465=VERTEX_POINT('',#1392);
#466=VERTEX_POINT('',#1394);
#467=VERTEX_POINT('',#1398);
#468=VERTEX_POINT('',#1400);
#469=VERTEX_POINT('',#1404);
#470=VERTEX_POINT('',#1406);
#471=VERTEX_POINT('',#1420);
#472=VERTEX_POINT('',#1431);
#473=LINE('',#1225,#543);
#474=LINE('',#1228,#544);
#475=LINE('',#1230,#545);
#476=LINE('',#1234,#546);
#477=LINE('',#1237,#547);
#478=LINE('',#1240,#548);
#479=LINE('',#1242,#549);
#480=LINE('',#1244,#550);
#481=LINE('',#1254,#551);
#482=LINE('',#1259,#552);
#483=LINE('',#1261,#553);
#484=LINE('',#1263,#554);
#485=LINE('',#1266,#555);
#486=LINE('',#1269,#556);
#487=LINE('',#1271,#557);
#488=LINE('',#1273,#558);
#489=LINE('',#1275,#559);
#490=LINE('',#1280,#560);
#491=LINE('',#1284,#561);
#492=LINE('',#1286,#562);
#493=LINE('',#1288,#563);
#494=LINE('',#1298,#564);
#495=LINE('',#1301,#565);
#496=LINE('',#1303,#566);
#497=LINE('',#1307,#567);
#498=LINE('',#1311,#568);
#499=LINE('',#1314,#569);
#500=LINE('',#1316,#570);
#501=LINE('',#1318,#571);
#502=LINE('',#1320,#572);
#503=LINE('',#1324,#573);
#504=LINE('',#1328,#574);
#505=LINE('',#1330,#575);
#506=LINE('',#1333,#576);
#507=LINE('',#1335,#577);
#508=LINE('',#1337,#578);
#509=LINE('',#1341,#579);
#510=LINE('',#1342,#580);
#511=LINE('',#1344,#581);
#512=LINE('',#1347,#582);
#513=LINE('',#1349,#583);
#514=LINE('',#1351,#584);
#515=LINE('',#1352,#585);
#516=LINE('',#1356,#586);
#517=LINE('',#1358,#587);
#518=LINE('',#1359,#588);
#519=LINE('',#1361,#589);
#520=LINE('',#1362,#590);
#521=LINE('',#1364,#591);
#522=LINE('',#1366,#592);
#523=LINE('',#1419,#593);
#524=LINE('',#1421,#594);
#525=LINE('',#1422,#595);
#526=LINE('',#1424,#596);
#527=LINE('',#1426,#597);
#528=LINE('',#1428,#598);
#529=LINE('',#1430,#599);
#530=LINE('',#1432,#600);
#531=LINE('',#1434,#601);
#532=LINE('',#1436,#602);
#533=LINE('',#1438,#603);
#534=LINE('',#1440,#604);
#535=LINE('',#1442,#605);
#536=LINE('',#1444,#606);
#537=LINE('',#1447,#607);
#538=LINE('',#1448,#608);
#539=LINE('',#1450,#609);
#540=LINE('',#1452,#610);
#541=LINE('',#1454,#611);
#542=LINE('',#1456,#612);
#543=VECTOR('',#967,1.);
#544=VECTOR('',#968,1.);
#545=VECTOR('',#969,1.);
#546=VECTOR('',#972,1.);
#547=VECTOR('',#975,1.);
#548=VECTOR('',#976,1.);
#549=VECTOR('',#977,1.);
#550=VECTOR('',#978,1.);
#551=VECTOR('',#989,1.);
#552=VECTOR('',#992,1.);
#553=VECTOR('',#993,1.);
#554=VECTOR('',#994,1.);
#555=VECTOR('',#997,1.);
#556=VECTOR('',#998,1.);
#557=VECTOR('',#999,1.);
#558=VECTOR('',#1000,1.);
#559=VECTOR('',#1003,1.);
#560=VECTOR('',#1006,1.);
#561=VECTOR('',#1011,1.);
#562=VECTOR('',#1012,1.);
#563=VECTOR('',#1013,1.);
#564=VECTOR('',#1024,1.);
#565=VECTOR('',#1025,1.);
#566=VECTOR('',#1026,1.);
#567=VECTOR('',#1029,1.);
#568=VECTOR('',#1034,1.);
#569=VECTOR('',#1035,1.);
#570=VECTOR('',#1036,1.);
#571=VECTOR('',#1037,1.);
#572=VECTOR('',#1040,1.);
#573=VECTOR('',#1043,1.);
#574=VECTOR('',#1046,1.);
#575=VECTOR('',#1049,1.);
#576=VECTOR('',#1050,1.);
#577=VECTOR('',#1051,1.);
#578=VECTOR('',#1052,1.);
#579=VECTOR('',#1055,1.);
#580=VECTOR('',#1056,1.);
#581=VECTOR('',#1059,1.);
#582=VECTOR('',#1060,1.);
#583=VECTOR('',#1061,1.);
#584=VECTOR('',#1062,1.);
#585=VECTOR('',#1063,1.);
#586=VECTOR('',#1066,1.);
#587=VECTOR('',#1069,1.);
#588=VECTOR('',#1070,1.);
#589=VECTOR('',#1073,1.);
#590=VECTOR('',#1074,1.);
#591=VECTOR('',#1077,1.);
#592=VECTOR('',#1080,1.);
#593=VECTOR('',#1161,1.);
#594=VECTOR('',#1162,1.);
#595=VECTOR('',#1163,1.);
#596=VECTOR('',#1166,1.);
#597=VECTOR('',#1169,1.);
#598=VECTOR('',#1172,1.);
#599=VECTOR('',#1175,1.);
#600=VECTOR('',#1176,1.);
#601=VECTOR('',#1179,1.);
#602=VECTOR('',#1182,1.);
#603=VECTOR('',#1185,1.);
#604=VECTOR('',#1188,1.);
#605=VECTOR('',#1191,1.);
#606=VECTOR('',#1194,1.);
#607=VECTOR('',#1199,1.);
#608=VECTOR('',#1200,1.);
#609=VECTOR('',#1203,1.);
#610=VECTOR('',#1206,1.);
#611=VECTOR('',#1209,1.);
#612=VECTOR('',#1212,1.);
#613=EDGE_LOOP('',(#75,#76,#77,#78,#79,#80));
#614=EDGE_LOOP('',(#81,#82,#83,#84));
#615=EDGE_LOOP('',(#85));
#616=EDGE_LOOP('',(#86));
#617=EDGE_LOOP('',(#87));
#618=EDGE_LOOP('',(#88));
#619=EDGE_LOOP('',(#89,#90,#91,#92,#93,#94));
#620=EDGE_LOOP('',(#95,#96,#97,#98));
#621=EDGE_LOOP('',(#99,#100,#101,#102));
#622=EDGE_LOOP('',(#103,#104,#105,#106));
#623=EDGE_LOOP('',(#107));
#624=EDGE_LOOP('',(#108));
#625=EDGE_LOOP('',(#109));
#626=EDGE_LOOP('',(#110));
#627=EDGE_LOOP('',(#111,#112,#113,#114,#115,#116));
#628=EDGE_LOOP('',(#117,#118,#119,#120));
#629=EDGE_LOOP('',(#121,#122,#123,#124,#125,#126));
#630=EDGE_LOOP('',(#127,#128,#129,#130,#131,#132,#133,#134));
#631=EDGE_LOOP('',(#135,#136,#137,#138,#139,#140,#141,#142));
#632=EDGE_LOOP('',(#143,#144,#145,#146,#147,#148));
#633=EDGE_LOOP('',(#149,#150,#151,#152));
#634=EDGE_LOOP('',(#153,#154,#155,#156));
#635=EDGE_LOOP('',(#157,#158,#159,#160));
#636=EDGE_LOOP('',(#161,#162,#163,#164));
#637=EDGE_LOOP('',(#165));
#638=EDGE_LOOP('',(#166));
#639=EDGE_LOOP('',(#167));
#640=EDGE_LOOP('',(#168));
#641=EDGE_LOOP('',(#169));
#642=EDGE_LOOP('',(#170));
#643=EDGE_LOOP('',(#171));
#644=EDGE_LOOP('',(#172));
#645=EDGE_LOOP('',(#173));
#646=EDGE_LOOP('',(#174));
#647=EDGE_LOOP('',(#175));
#648=EDGE_LOOP('',(#176));
#649=EDGE_LOOP('',(#177));
#650=EDGE_LOOP('',(#178));
#651=EDGE_LOOP('',(#179));
#652=EDGE_LOOP('',(#180));
#653=EDGE_LOOP('',(#181));
#654=EDGE_LOOP('',(#182));
#655=EDGE_LOOP('',(#183));
#656=EDGE_LOOP('',(#184));
#657=EDGE_LOOP('',(#185));
#658=EDGE_LOOP('',(#186));
#659=EDGE_LOOP('',(#187));
#660=EDGE_LOOP('',(#188));
#661=EDGE_LOOP('',(#189,#190,#191,#192));
#662=EDGE_LOOP('',(#193,#194,#195,#196));
#663=EDGE_LOOP('',(#197,#198,#199,#200));
#664=EDGE_LOOP('',(#201,#202,#203,#204));
#665=EDGE_LOOP('',(#205,#206,#207,#208,#209));
#666=EDGE_LOOP('',(#210,#211,#212,#213));
#667=EDGE_LOOP('',(#214,#215,#216,#217));
#668=EDGE_LOOP('',(#218,#219,#220,#221));
#669=EDGE_LOOP('',(#222,#223,#224,#225,#226));
#670=EDGE_LOOP('',(#227,#228,#229,#230));
#671=EDGE_LOOP('',(#231,#232,#233,#234));
#672=EDGE_LOOP('',(#235,#236,#237,#238));
#673=EDGE_LOOP('',(#239,#240,#241,#242));
#674=EDGE_LOOP('',(#243,#244,#245,#246));
#675=EDGE_LOOP('',(#247,#248,#249,#250));
#676=EDGE_LOOP('',(#251,#252,#253,#254));
#677=EDGE_LOOP('',(#255,#256,#257,#258));
#678=EDGE_LOOP('',(#259,#260,#261,#262));
#679=EDGE_LOOP('',(#263,#264,#265,#266));
#680=EDGE_LOOP('',(#267,#268,#269,#270,#271));
#681=EDGE_LOOP('',(#272,#273,#274,#275,#276));
#682=EDGE_LOOP('',(#277,#278,#279,#280,#281,#282));
#683=EDGE_LOOP('',(#283));
#684=EDGE_LOOP('',(#284));
#685=EDGE_LOOP('',(#285));
#686=EDGE_LOOP('',(#286));
#687=EDGE_LOOP('',(#287));
#688=EDGE_LOOP('',(#288));
#689=EDGE_LOOP('',(#289));
#690=EDGE_LOOP('',(#290));
#691=FACE_BOUND('',#613,.T.);
#692=FACE_BOUND('',#614,.T.);
#693=FACE_BOUND('',#615,.T.);
#694=FACE_BOUND('',#616,.T.);
#695=FACE_BOUND('',#617,.T.);
#696=FACE_BOUND('',#618,.T.);
#697=FACE_BOUND('',#619,.T.);
#698=FACE_BOUND('',#620,.T.);
#699=FACE_BOUND('',#621,.T.);
#700=FACE_BOUND('',#622,.T.);
#701=FACE_BOUND('',#623,.T.);
#702=FACE_BOUND('',#624,.T.);
#703=FACE_BOUND('',#625,.T.);
#704=FACE_BOUND('',#626,.T.);
#705=FACE_BOUND('',#627,.T.);
#706=FACE_BOUND('',#628,.T.);
#707=FACE_BOUND('',#629,.T.);
#708=FACE_BOUND('',#630,.T.);
#709=FACE_BOUND('',#631,.T.);
#710=FACE_BOUND('',#632,.T.);
#711=FACE_BOUND('',#633,.T.);
#712=FACE_BOUND('',#634,.T.);
#713=FACE_BOUND('',#635,.T.);
#714=FACE_BOUND('',#636,.T.);
#715=FACE_BOUND('',#637,.T.);
#716=FACE_BOUND('',#638,.T.);
#717=FACE_BOUND('',#639,.T.);
#718=FACE_BOUND('',#640,.T.);
#719=FACE_BOUND('',#641,.T.);
#720=FACE_BOUND('',#642,.T.);
#721=FACE_BOUND('',#643,.T.);
#722=FACE_BOUND('',#644,.T.);
#723=FACE_BOUND('',#645,.T.);
#724=FACE_BOUND('',#646,.T.);
#725=FACE_BOUND('',#647,.T.);
#726=FACE_BOUND('',#648,.T.);
#727=FACE_BOUND('',#649,.T.);
#728=FACE_BOUND('',#650,.T.);
#729=FACE_BOUND('',#651,.T.);
#730=FACE_BOUND('',#652,.T.);
#731=FACE_BOUND('',#653,.T.);
#732=FACE_BOUND('',#654,.T.);
#733=FACE_BOUND('',#655,.T.);
#734=FACE_BOUND('',#656,.T.);
#735=FACE_BOUND('',#657,.T.);
#736=FACE_BOUND('',#658,.T.);
#737=FACE_BOUND('',#659,.T.);
#738=FACE_BOUND('',#660,.T.);
#739=FACE_BOUND('',#661,.T.);
#740=FACE_BOUND('',#662,.T.);
#741=FACE_BOUND('',#663,.T.);
#742=FACE_BOUND('',#664,.T.);
#743=FACE_BOUND('',#665,.T.);
#744=FACE_BOUND('',#666,.T.);
#745=FACE_BOUND('',#667,.T.);
#746=FACE_BOUND('',#668,.T.);
#747=FACE_BOUND('',#669,.T.);
#748=FACE_BOUND('',#670,.T.);
#749=FACE_BOUND('',#671,.T.);
#750=FACE_BOUND('',#672,.T.);
#751=FACE_BOUND('',#673,.T.);
#752=FACE_BOUND('',#674,.T.);
#753=FACE_BOUND('',#675,.T.);
#754=FACE_BOUND('',#676,.T.);
#755=FACE_BOUND('',#677,.T.);
#756=FACE_BOUND('',#678,.T.);
#757=FACE_BOUND('',#679,.T.);
#758=FACE_BOUND('',#680,.T.);
#759=FACE_BOUND('',#681,.T.);
#760=FACE_BOUND('',#682,.T.);
#761=FACE_BOUND('',#683,.T.);
#762=FACE_BOUND('',#684,.T.);
#763=FACE_BOUND('',#685,.T.);
#764=FACE_BOUND('',#686,.T.);
#765=FACE_BOUND('',#687,.T.);
#766=FACE_BOUND('',#688,.T.);
#767=FACE_BOUND('',#689,.T.);
#768=FACE_BOUND('',#690,.T.);
#769=PLANE('',#869);
#770=PLANE('',#872);
#771=PLANE('',#882);
#772=PLANE('',#883);
#773=PLANE('',#890);
#774=PLANE('',#891);
#775=PLANE('',#894);
#776=PLANE('',#896);
#777=PLANE('',#898);
#778=PLANE('',#899);
#779=PLANE('',#900);
#780=PLANE('',#901);
#781=PLANE('',#902);
#782=PLANE('',#903);
#783=PLANE('',#906);
#784=PLANE('',#909);
#785=PLANE('',#912);
#786=PLANE('',#918);
#787=PLANE('',#922);
#788=PLANE('',#926);
#789=PLANE('',#930);
#790=PLANE('',#941);
#791=PLANE('',#943);
#792=PLANE('',#945);
#793=PLANE('',#947);
#794=PLANE('',#949);
#795=PLANE('',#951);
#796=PLANE('',#953);
#797=PLANE('',#956);
#798=PLANE('',#957);
#799=PLANE('',#958);
#800=ADVANCED_FACE('',(#691,#692),#769,.F.);
#801=ADVANCED_FACE('',(#693,#694,#695,#696,#697,#698),#770,.F.);
#802=ADVANCED_FACE('',(#699),#24,.F.);
#803=ADVANCED_FACE('',(#700),#771,.T.);
#804=ADVANCED_FACE('',(#701,#702,#703,#704,#705),#772,.F.);
#805=ADVANCED_FACE('',(#706),#773,.F.);
#806=ADVANCED_FACE('',(#707),#774,.F.);
#807=ADVANCED_FACE('',(#708),#775,.T.);
#808=ADVANCED_FACE('',(#709),#776,.F.);
#809=ADVANCED_FACE('',(#710),#777,.T.);
#810=ADVANCED_FACE('',(#711),#778,.T.);
#811=ADVANCED_FACE('',(#712),#779,.F.);
#812=ADVANCED_FACE('',(#713),#780,.F.);
#813=ADVANCED_FACE('',(#714),#781,.T.);
#814=ADVANCED_FACE('',(#715),#782,.T.);
#815=ADVANCED_FACE('',(#716,#717),#25,.F.);
#816=ADVANCED_FACE('',(#718),#783,.T.);
#817=ADVANCED_FACE('',(#719,#720),#26,.F.);
#818=ADVANCED_FACE('',(#721),#784,.T.);
#819=ADVANCED_FACE('',(#722,#723),#27,.F.);
#820=ADVANCED_FACE('',(#724),#785,.T.);
#821=ADVANCED_FACE('',(#725,#726),#28,.F.);
#822=ADVANCED_FACE('',(#727,#728),#29,.F.);
#823=ADVANCED_FACE('',(#729),#786,.T.);
#824=ADVANCED_FACE('',(#730,#731),#30,.F.);
#825=ADVANCED_FACE('',(#732),#787,.T.);
#826=ADVANCED_FACE('',(#733,#734),#31,.F.);
#827=ADVANCED_FACE('',(#735),#788,.T.);
#828=ADVANCED_FACE('',(#736,#737),#32,.F.);
#829=ADVANCED_FACE('',(#738),#789,.T.);
#830=ADVANCED_FACE('',(#739),#33,.T.);
#831=ADVANCED_FACE('',(#740),#34,.T.);
#832=ADVANCED_FACE('',(#741),#35,.T.);
#833=ADVANCED_FACE('',(#742),#36,.T.);
#834=ADVANCED_FACE('',(#743),#790,.T.);
#835=ADVANCED_FACE('',(#744),#12,.T.);
#836=ADVANCED_FACE('',(#745),#791,.T.);
#837=ADVANCED_FACE('',(#746),#13,.T.);
#838=ADVANCED_FACE('',(#747),#792,.F.);
#839=ADVANCED_FACE('',(#748),#14,.F.);
#840=ADVANCED_FACE('',(#749),#793,.F.);
#841=ADVANCED_FACE('',(#750),#15,.T.);
#842=ADVANCED_FACE('',(#751),#794,.F.);
#843=ADVANCED_FACE('',(#752),#16,.T.);
#844=ADVANCED_FACE('',(#753),#795,.T.);
#845=ADVANCED_FACE('',(#754),#17,.F.);
#846=ADVANCED_FACE('',(#755),#796,.F.);
#847=ADVANCED_FACE('',(#756),#18,.T.);
#848=ADVANCED_FACE('',(#757),#19,.T.);
#849=ADVANCED_FACE('',(#758),#797,.T.);
#850=ADVANCED_FACE('',(#759),#798,.F.);
#851=ADVANCED_FACE('',(#760),#799,.F.);
#852=ADVANCED_FACE('',(#761,#762),#20,.F.);
#853=ADVANCED_FACE('',(#763,#764),#21,.F.);
#854=ADVANCED_FACE('',(#765,#766),#22,.F.);
#855=ADVANCED_FACE('',(#767,#768),#23,.F.);
#856=CLOSED_SHELL('',(#800,#801,#802,#803,#804,#805,#806,#807,#808,#809,
#810,#811,#812,#813,#814,#815,#816,#817,#818,#819,#820,#821,#822,#823,#824,
#825,#826,#827,#828,#829,#830,#831,#832,#833,#834,#835,#836,#837,#838,#839,
#840,#841,#842,#843,#844,#845,#846,#847,#848,#849,#850,#851,#852,#853,#854,
#855));
#857=STYLED_ITEM('',(#858),#865);
#858=PRESENTATION_STYLE_ASSIGNMENT((#859));
#859=SURFACE_STYLE_USAGE(.BOTH.,#860);
#860=SURFACE_SIDE_STYLE('',(#861));
#861=SURFACE_STYLE_FILL_AREA(#862);
#862=FILL_AREA_STYLE('',(#863));
#863=FILL_AREA_STYLE_COLOUR('',#864);
#864=COLOUR_RGB('',0.615686274509804,0.811764705882353,0.929411764705882);
#865=MANIFOLD_SOLID_BREP('Part 1',#856);
#866=SHAPE_DEFINITION_REPRESENTATION(#1468,#867);
#867=SHAPE_REPRESENTATION('Part 1',(#868),#1463);
#868=AXIS2_PLACEMENT_3D('',#1223,#963,#964);
#869=AXIS2_PLACEMENT_3D('',#1224,#965,#966);
#870=AXIS2_PLACEMENT_3D('',#1232,#970,#971);
#871=AXIS2_PLACEMENT_3D('',#1236,#973,#974);
#872=AXIS2_PLACEMENT_3D('',#1245,#979,#980);
#873=AXIS2_PLACEMENT_3D('',#1246,#981,#982);
#874=AXIS2_PLACEMENT_3D('',#1248,#983,#984);
#875=AXIS2_PLACEMENT_3D('',#1250,#985,#986);
#876=AXIS2_PLACEMENT_3D('',#1252,#987,#988);
#877=AXIS2_PLACEMENT_3D('',#1257,#990,#991);
#878=AXIS2_PLACEMENT_3D('',#1265,#995,#996);
#879=AXIS2_PLACEMENT_3D('',#1274,#1001,#1002);
#880=AXIS2_PLACEMENT_3D('',#1278,#1004,#1005);
#881=AXIS2_PLACEMENT_3D('',#1282,#1007,#1008);
#882=AXIS2_PLACEMENT_3D('',#1283,#1009,#1010);
#883=AXIS2_PLACEMENT_3D('',#1289,#1014,#1015);
#884=AXIS2_PLACEMENT_3D('',#1290,#1016,#1017);
#885=AXIS2_PLACEMENT_3D('',#1292,#1018,#1019);
#886=AXIS2_PLACEMENT_3D('',#1294,#1020,#1021);
#887=AXIS2_PLACEMENT_3D('',#1296,#1022,#1023);
#888=AXIS2_PLACEMENT_3D('',#1305,#1027,#1028);
#889=AXIS2_PLACEMENT_3D('',#1309,#1030,#1031);
#890=AXIS2_PLACEMENT_3D('',#1310,#1032,#1033);
#891=AXIS2_PLACEMENT_3D('',#1319,#1038,#1039);
#892=AXIS2_PLACEMENT_3D('',#1322,#1041,#1042);
#893=AXIS2_PLACEMENT_3D('',#1326,#1044,#1045);
#894=AXIS2_PLACEMENT_3D('',#1329,#1047,#1048);
#895=AXIS2_PLACEMENT_3D('',#1339,#1053,#1054);
#896=AXIS2_PLACEMENT_3D('',#1343,#1057,#1058);
#897=AXIS2_PLACEMENT_3D('',#1354,#1064,#1065);
#898=AXIS2_PLACEMENT_3D('',#1357,#1067,#1068);
#899=AXIS2_PLACEMENT_3D('',#1360,#1071,#1072);
#900=AXIS2_PLACEMENT_3D('',#1363,#1075,#1076);
#901=AXIS2_PLACEMENT_3D('',#1365,#1078,#1079);
#902=AXIS2_PLACEMENT_3D('',#1367,#1081,#1082);
#903=AXIS2_PLACEMENT_3D('',#1368,#1083,#1084);
#904=AXIS2_PLACEMENT_3D('',#1369,#1085,#1086);
#905=AXIS2_PLACEMENT_3D('',#1371,#1087,#1088);
#906=AXIS2_PLACEMENT_3D('',#1372,#1089,#1090);
#907=AXIS2_PLACEMENT_3D('',#1373,#1091,#1092);
#908=AXIS2_PLACEMENT_3D('',#1375,#1093,#1094);
#909=AXIS2_PLACEMENT_3D('',#1376,#1095,#1096);
#910=AXIS2_PLACEMENT_3D('',#1377,#1097,#1098);
#911=AXIS2_PLACEMENT_3D('',#1379,#1099,#1100);
#912=AXIS2_PLACEMENT_3D('',#1380,#1101,#1102);
#913=AXIS2_PLACEMENT_3D('',#1381,#1103,#1104);
#914=AXIS2_PLACEMENT_3D('',#1383,#1105,#1106);
#915=AXIS2_PLACEMENT_3D('',#1384,#1107,#1108);
#916=AXIS2_PLACEMENT_3D('',#1385,#1109,#1110);
#917=AXIS2_PLACEMENT_3D('',#1387,#1111,#1112);
#918=AXIS2_PLACEMENT_3D('',#1389,#1113,#1114);
#919=AXIS2_PLACEMENT_3D('',#1390,#1115,#1116);
#920=AXIS2_PLACEMENT_3D('',#1391,#1117,#1118);
#921=AXIS2_PLACEMENT_3D('',#1393,#1119,#1120);
#922=AXIS2_PLACEMENT_3D('',#1395,#1121,#1122);
#923=AXIS2_PLACEMENT_3D('',#1396,#1123,#1124);
#924=AXIS2_PLACEMENT_3D('',#1397,#1125,#1126);
#925=AXIS2_PLACEMENT_3D('',#1399,#1127,#1128);
#926=AXIS2_PLACEMENT_3D('',#1401,#1129,#1130);
#927=AXIS2_PLACEMENT_3D('',#1402,#1131,#1132);
#928=AXIS2_PLACEMENT_3D('',#1403,#1133,#1134);
#929=AXIS2_PLACEMENT_3D('',#1405,#1135,#1136);
#930=AXIS2_PLACEMENT_3D('',#1407,#1137,#1138);
#931=AXIS2_PLACEMENT_3D('',#1408,#1139,#1140);
#932=AXIS2_PLACEMENT_3D('',#1409,#1141,#1142);
#933=AXIS2_PLACEMENT_3D('',#1410,#1143,#1144);
#934=AXIS2_PLACEMENT_3D('',#1411,#1145,#1146);
#935=AXIS2_PLACEMENT_3D('',#1412,#1147,#1148);
#936=AXIS2_PLACEMENT_3D('',#1413,#1149,#1150);
#937=AXIS2_PLACEMENT_3D('',#1414,#1151,#1152);
#938=AXIS2_PLACEMENT_3D('',#1415,#1153,#1154);
#939=AXIS2_PLACEMENT_3D('',#1416,#1155,#1156);
#940=AXIS2_PLACEMENT_3D('',#1417,#1157,#1158);
#941=AXIS2_PLACEMENT_3D('',#1418,#1159,#1160);
#942=AXIS2_PLACEMENT_3D('',#1423,#1164,#1165);
#943=AXIS2_PLACEMENT_3D('',#1425,#1167,#1168);
#944=AXIS2_PLACEMENT_3D('',#1427,#1170,#1171);
#945=AXIS2_PLACEMENT_3D('',#1429,#1173,#1174);
#946=AXIS2_PLACEMENT_3D('',#1433,#1177,#1178);
#947=AXIS2_PLACEMENT_3D('',#1435,#1180,#1181);
#948=AXIS2_PLACEMENT_3D('',#1437,#1183,#1184);
#949=AXIS2_PLACEMENT_3D('',#1439,#1186,#1187);
#950=AXIS2_PLACEMENT_3D('',#1441,#1189,#1190);
#951=AXIS2_PLACEMENT_3D('',#1443,#1192,#1193);
#952=AXIS2_PLACEMENT_3D('',#1445,#1195,#1196);
#953=AXIS2_PLACEMENT_3D('',#1446,#1197,#1198);
#954=AXIS2_PLACEMENT_3D('',#1449,#1201,#1202);
#955=AXIS2_PLACEMENT_3D('',#1451,#1204,#1205);
#956=AXIS2_PLACEMENT_3D('',#1453,#1207,#1208);
#957=AXIS2_PLACEMENT_3D('',#1455,#1210,#1211);
#958=AXIS2_PLACEMENT_3D('',#1457,#1213,#1214);
#959=AXIS2_PLACEMENT_3D('',#1458,#1215,#1216);
#960=AXIS2_PLACEMENT_3D('',#1459,#1217,#1218);
#961=AXIS2_PLACEMENT_3D('',#1460,#1219,#1220);
#962=AXIS2_PLACEMENT_3D('',#1461,#1221,#1222);
#963=DIRECTION('',(0.,0.,1.));
#964=DIRECTION('',(1.,0.,0.));
#965=DIRECTION('',(0.,0.939692620785908,-0.342020143325668));
#966=DIRECTION('',(0.,0.342020143325668,0.939692620785908));
#967=DIRECTION('',(0.,-0.342020143325668,-0.939692620785908));
#968=DIRECTION('',(1.,0.,0.));
#969=DIRECTION('',(0.,0.342020143325668,0.939692620785908));
#970=DIRECTION('',(0.,0.939692620785908,-0.342020143325668));
#971=DIRECTION('',(0.,0.342020143325668,0.939692620785908));
#972=DIRECTION('',(-1.,0.,0.));
#973=DIRECTION('',(0.,0.939692620785908,-0.342020143325668));
#974=DIRECTION('',(0.,0.342020143325668,0.939692620785908));
#975=DIRECTION('',(1.,0.,0.));
#976=DIRECTION('',(9.01155052455484E-17,-0.342020143325668,-0.939692620785908));
#977=DIRECTION('',(1.,0.,0.));
#978=DIRECTION('',(-9.01155052455484E-17,-0.342020143325668,-0.939692620785908));
#979=DIRECTION('',(0.,-0.939692620785908,0.342020143325668));
#980=DIRECTION('',(1.,0.,0.));
#981=DIRECTION('',(0.,-0.939692620785908,0.342020143325668));
#982=DIRECTION('',(0.,-0.342020143325668,-0.939692620785908));
#983=DIRECTION('',(0.,-0.939692620785908,0.342020143325668));
#984=DIRECTION('',(0.,-0.342020143325668,-0.939692620785908));
#985=DIRECTION('',(0.,-0.939692620785908,0.342020143325668));
#986=DIRECTION('',(0.,-0.342020143325668,-0.939692620785908));
#987=DIRECTION('',(0.,-0.939692620785908,0.342020143325668));
#988=DIRECTION('',(0.,-0.342020143325668,-0.939692620785908));
#989=DIRECTION('',(1.,-3.27958457820663E-17,-9.01058457381435E-17));
#990=DIRECTION('',(0.,-0.939692620785908,0.342020143325668));
#991=DIRECTION('',(0.,-0.342020143325668,-0.939692620785908));
#992=DIRECTION('',(-3.30423519233678E-16,-0.342020143325668,-0.939692620785908));
#993=DIRECTION('',(1.,-3.87642016181948E-17,-1.06503768629177E-16));
#994=DIRECTION('',(-3.30423519233678E-16,-0.342020143325668,-0.939692620785908));
#995=DIRECTION('',(0.,-0.939692620785908,0.342020143325668));
#996=DIRECTION('',(0.,-0.342020143325668,-0.939692620785908));
#997=DIRECTION('',(1.,0.,0.));
#998=DIRECTION('',(-9.01155052455484E-17,-0.342020143325668,-0.939692620785908));
#999=DIRECTION('',(1.,0.,0.));
#1000=DIRECTION('',(9.01155052455484E-17,-0.342020143325668,-0.939692620785908));
#1001=DIRECTION('',(-1.,0.,0.));
#1002=DIRECTION('',(0.,0.,1.));
#1003=DIRECTION('',(-1.,0.,0.));
#1004=DIRECTION('',(1.,0.,0.));
#1005=DIRECTION('',(0.,0.,-1.));
#1006=DIRECTION('',(-1.,0.,0.));
#1007=DIRECTION('',(1.,0.,0.));
#1008=DIRECTION('',(0.,0.,-1.));
#1009=DIRECTION('',(0.,0.342020143325668,0.939692620785908));
#1010=DIRECTION('',(0.,-0.939692620785908,0.342020143325668));
#1011=DIRECTION('',(0.,0.939692620785908,-0.342020143325668));
#1012=DIRECTION('',(1.,0.,0.));
#1013=DIRECTION('',(0.,0.939692620785908,-0.342020143325668));
#1014=DIRECTION('',(0.,0.,1.));
#1015=DIRECTION('',(1.,0.,0.));
#1016=DIRECTION('',(0.,0.,1.));
#1017=DIRECTION('',(1.,0.,0.));
#1018=DIRECTION('',(0.,0.,1.));
#1019=DIRECTION('',(1.,0.,0.));
#1020=DIRECTION('',(0.,0.,1.));
#1021=DIRECTION('',(1.,0.,0.));
#1022=DIRECTION('',(0.,0.,1.));
#1023=DIRECTION('',(1.,0.,0.));
#1024=DIRECTION('',(0.,-1.,0.));
#1025=DIRECTION('',(-1.,0.,0.));
#1026=DIRECTION('',(0.,1.,0.));
#1027=DIRECTION('',(0.,0.,1.));
#1028=DIRECTION('',(1.,0.,0.));
#1029=DIRECTION('',(1.,0.,0.));
#1030=DIRECTION('',(0.,0.,1.));
#1031=DIRECTION('',(1.,0.,0.));
#1032=DIRECTION('',(0.,-1.,0.));
#1033=DIRECTION('',(0.,0.,-1.));
#1034=DIRECTION('',(0.,0.,1.));
#1035=DIRECTION('',(-1.,0.,0.));
#1036=DIRECTION('',(0.,0.,1.));
#1037=DIRECTION('',(1.,0.,0.));
#1038=DIRECTION('',(0.,1.41172149103092E-16,-1.));
#1039=DIRECTION('',(0.,1.,1.41172149103092E-16));
#1040=DIRECTION('',(0.,1.,1.41172149103092E-16));
#1041=DIRECTION('',(0.,1.41172149103092E-16,-1.));
#1042=DIRECTION('',(0.,1.,1.41172149103092E-16));
#1043=DIRECTION('',(-1.,0.,0.));
#1044=DIRECTION('',(0.,1.41172149103092E-16,-1.));
#1045=DIRECTION('',(0.,1.,1.41172149103092E-16));
#1046=DIRECTION('',(0.,-1.,-1.41172149103092E-16));
#1047=DIRECTION('',(1.,0.,0.));
#1048=DIRECTION('',(0.,1.,0.));
#1049=DIRECTION('',(0.,-0.342020143325668,-0.939692620785908));
#1050=DIRECTION('',(0.,1.,0.));
#1051=DIRECTION('',(0.,0.,1.));
#1052=DIRECTION('',(0.,-1.,-1.41172149103092E-16));
#1053=DIRECTION('',(1.,0.,0.));
#1054=DIRECTION('',(0.,0.,-1.));
#1055=DIRECTION('',(0.,0.939692620785908,-0.342020143325668));
#1056=DIRECTION('',(0.,0.939692620785908,-0.342020143325668));
#1057=DIRECTION('',(1.,0.,0.));
#1058=DIRECTION('',(0.,1.,0.));
#1059=DIRECTION('',(0.,0.,1.));
#1060=DIRECTION('',(0.,-1.,0.));
#1061=DIRECTION('',(0.,0.342020143325668,0.939692620785908));
#1062=DIRECTION('',(0.,0.939692620785908,-0.342020143325668));
#1063=DIRECTION('',(0.,0.939692620785908,-0.342020143325668));
#1064=DIRECTION('',(1.,0.,0.));
#1065=DIRECTION('',(0.,0.,-1.));
#1066=DIRECTION('',(0.,1.,1.41172149103092E-16));
#1067=DIRECTION('',(1.13338943260087E-16,0.342020143325668,0.939692620785908));
#1068=DIRECTION('',(0.,-0.939692620785908,0.342020143325668));
#1069=DIRECTION('',(0.707106781186546,-0.664463024388676,0.241844762647975));
#1070=DIRECTION('',(0.707106781186546,0.664463024388676,-0.241844762647975));
#1071=DIRECTION('',(0.,-0.342020143325668,-0.939692620785909));
#1072=DIRECTION('',(0.,0.939692620785909,-0.342020143325668));
#1073=DIRECTION('',(0.,-0.939692620785909,0.342020143325668));
#1074=DIRECTION('',(0.,-0.939692620785909,0.342020143325668));
#1075=DIRECTION('',(-1.,3.08213180199475E-17,8.46808752976357E-17));
#1076=DIRECTION('',(8.46808752976357E-17,0.,1.));
#1077=DIRECTION('',(0.,-0.939692620785909,0.342020143325668));
#1078=DIRECTION('',(0.,-0.342020143325668,-0.939692620785909));
#1079=DIRECTION('',(0.,0.939692620785909,-0.342020143325668));
#1080=DIRECTION('',(0.,-0.939692620785909,0.342020143325668));
#1081=DIRECTION('',(-1.,-3.08213180199475E-17,-8.46808752976357E-17));
#1082=DIRECTION('',(-8.46808752976357E-17,0.,1.));
#1083=DIRECTION('',(0.,0.939692620785908,-0.342020143325668));
#1084=DIRECTION('',(0.,0.342020143325668,0.939692620785908));
#1085=DIRECTION('',(0.,-0.939692620785908,0.342020143325668));
#1086=DIRECTION('',(0.,-0.342020143325668,-0.939692620785908));
#1087=DIRECTION('',(0.,-0.939692620785908,0.342020143325668));
#1088=DIRECTION('',(0.,-0.342020143325668,-0.939692620785908));
#1089=DIRECTION('',(0.,0.939692620785908,-0.342020143325668));
#1090=DIRECTION('',(0.,0.342020143325668,0.939692620785908));
#1091=DIRECTION('',(0.,-0.939692620785908,0.342020143325668));
#1092=DIRECTION('',(0.,-0.342020143325668,-0.939692620785908));
#1093=DIRECTION('',(0.,-0.939692620785908,0.342020143325668));
#1094=DIRECTION('',(0.,-0.342020143325668,-0.939692620785908));
#1095=DIRECTION('',(0.,0.939692620785908,-0.342020143325668));
#1096=DIRECTION('',(0.,0.342020143325668,0.939692620785908));
#1097=DIRECTION('',(0.,-0.939692620785908,0.342020143325668));
#1098=DIRECTION('',(0.,-0.342020143325668,-0.939692620785908));
#1099=DIRECTION('',(0.,-0.939692620785908,0.342020143325668));
#1100=DIRECTION('',(0.,-0.342020143325668,-0.939692620785908));
#1101=DIRECTION('',(0.,0.939692620785908,-0.342020143325668));
#1102=DIRECTION('',(0.,0.342020143325668,0.939692620785908));
#1103=DIRECTION('',(0.,-0.939692620785908,0.342020143325668));
#1104=DIRECTION('',(0.,-0.342020143325668,-0.939692620785908));
#1105=DIRECTION('',(0.,-0.939692620785908,0.342020143325668));
#1106=DIRECTION('',(0.,-0.342020143325668,-0.939692620785908));
#1107=DIRECTION('',(0.,0.,-1.));
#1108=DIRECTION('',(-1.,0.,0.));
#1109=DIRECTION('',(0.,0.,1.));
#1110=DIRECTION('',(1.,0.,0.));
#1111=DIRECTION('',(0.,0.,-1.));
#1112=DIRECTION('',(-1.,0.,0.));
#1113=DIRECTION('',(0.,0.,-1.));
#1114=DIRECTION('',(1.,0.,0.));
#1115=DIRECTION('',(0.,0.,-1.));
#1116=DIRECTION('',(-1.,0.,0.));
#1117=DIRECTION('',(0.,0.,1.));
#1118=DIRECTION('',(1.,0.,0.));
#1119=DIRECTION('',(0.,0.,-1.));
#1120=DIRECTION('',(-1.,0.,0.));
#1121=DIRECTION('',(0.,0.,-1.));
#1122=DIRECTION('',(1.,0.,0.));
#1123=DIRECTION('',(0.,0.,-1.));
#1124=DIRECTION('',(-1.,0.,0.));
#1125=DIRECTION('',(0.,0.,1.));
#1126=DIRECTION('',(1.,0.,0.));
#1127=DIRECTION('',(0.,0.,-1.));
#1128=DIRECTION('',(-1.,0.,0.));
#1129=DIRECTION('',(0.,0.,-1.));
#1130=DIRECTION('',(1.,0.,0.));
#1131=DIRECTION('',(0.,0.,-1.));
#1132=DIRECTION('',(-1.,0.,0.));
#1133=DIRECTION('',(0.,0.,1.));
#1134=DIRECTION('',(1.,0.,0.));
#1135=DIRECTION('',(0.,0.,-1.));
#1136=DIRECTION('',(-1.,0.,0.));
#1137=DIRECTION('',(0.,0.,-1.));
#1138=DIRECTION('',(1.,0.,0.));
#1139=DIRECTION('',(0.,0.,1.));
#1140=DIRECTION('',(1.,0.,0.));
#1141=DIRECTION('',(0.,0.,1.));
#1142=DIRECTION('',(1.,0.,0.));
#1143=DIRECTION('',(0.,0.,-1.));
#1144=DIRECTION('',(-1.,0.,0.));
#1145=DIRECTION('',(0.,0.,-1.));
#1146=DIRECTION('',(-1.,0.,0.));
#1147=DIRECTION('',(0.,0.,1.));
#1148=DIRECTION('',(1.,0.,0.));
#1149=DIRECTION('',(0.,0.,-1.));
#1150=DIRECTION('',(-1.,0.,0.));
#1151=DIRECTION('',(0.,0.939692620785908,-0.342020143325668));
#1152=DIRECTION('',(0.,0.342020143325668,0.939692620785908));
#1153=DIRECTION('',(0.,0.939692620785908,-0.342020143325669));
#1154=DIRECTION('',(0.,0.342020143325669,0.939692620785908));
#1155=DIRECTION('',(0.,-0.939692620785908,0.342020143325668));
#1156=DIRECTION('',(0.,-0.342020143325668,-0.939692620785908));
#1157=DIRECTION('',(0.,0.939692620785908,-0.342020143325669));
#1158=DIRECTION('',(0.,0.342020143325669,0.939692620785908));
#1159=DIRECTION('',(0.707106781186548,-0.664463024388674,0.241844762647975));
#1160=DIRECTION('',(0.,0.342020143325668,0.939692620785908));
#1161=DIRECTION('',(-0.633687274224641,-0.443712606279657,0.633687274224643));
#1162=DIRECTION('',(0.497542812164523,0.71056477546163,0.497542812164523));
#1163=DIRECTION('',(0.70710678118655,0.664463024388671,-0.241844762647976));
#1164=DIRECTION('',(0.,0.939692620785908,-0.342020143325669));
#1165=DIRECTION('',(0.,0.342020143325669,0.939692620785908));
#1166=DIRECTION('',(0.,0.906307787036648,0.422618261740703));
#1167=DIRECTION('',(0.,-0.422618261740703,0.906307787036648));
#1168=DIRECTION('',(1.,0.,0.));
#1169=DIRECTION('',(0.,0.906307787036648,0.422618261740705));
#1170=DIRECTION('',(0.,0.939692620785908,-0.342020143325669));
#1171=DIRECTION('',(0.,0.342020143325669,0.939692620785908));
#1172=DIRECTION('',(-0.707106781186555,0.664463024388666,-0.241844762647978));
#1173=DIRECTION('',(0.707106781186547,0.664463024388676,-0.241844762647975));
#1174=DIRECTION('',(0.,-0.342020143325668,-0.939692620785908));
#1175=DIRECTION('',(0.497542812164524,-0.710564775461629,-0.497542812164524));
#1176=DIRECTION('',(0.633687274224643,-0.443712606279657,0.633687274224642));
#1177=DIRECTION('',(-1.,0.,0.));
#1178=DIRECTION('',(0.,0.,1.));
#1179=DIRECTION('',(0.707106781186546,0.,0.707106781186549));
#1180=DIRECTION('',(0.707106781186547,9.98237839454752E-17,-0.707106781186549));
#1181=DIRECTION('',(0.,-1.,-1.41172149103092E-16));
#1182=DIRECTION('',(0.707106781186549,0.,0.707106781186546));
#1183=DIRECTION('',(0.,0.,-1.));
#1184=DIRECTION('',(-1.,0.,0.));
#1185=DIRECTION('',(0.,-0.707106781186547,0.707106781186548));
#1186=DIRECTION('',(0.,-0.707106781186548,-0.707106781186548));
#1187=DIRECTION('',(-1.,0.,0.));
#1188=DIRECTION('',(0.,-0.707106781186548,0.707106781186548));
#1189=DIRECTION('',(0.,0.,-1.));
#1190=DIRECTION('',(-1.,0.,0.));
#1191=DIRECTION('',(-0.707106781186549,0.,0.707106781186546));
#1192=DIRECTION('',(0.707106781186547,-9.98237839454752E-17,0.707106781186549));
#1193=DIRECTION('',(0.,1.,1.41172149103092E-16));
#1194=DIRECTION('',(-0.707106781186548,0.,0.707106781186547));
#1195=DIRECTION('',(1.,0.,0.));
#1196=DIRECTION('',(0.,0.,-1.));
#1197=DIRECTION('',(0.,-0.707106781186548,0.707106781186548));
#1198=DIRECTION('',(-1.,0.,0.));
#1199=DIRECTION('',(0.,-0.707106781186548,-0.707106781186548));
#1200=DIRECTION('',(0.,0.707106781186548,0.707106781186548));
#1201=DIRECTION('',(0.,0.,1.));
#1202=DIRECTION('',(1.,0.,0.));
#1203=DIRECTION('',(0.707106781186548,0.,0.707106781186548));
#1204=DIRECTION('',(0.,0.,1.));
#1205=DIRECTION('',(1.,0.,0.));
#1206=DIRECTION('',(0.707106781186548,0.,-0.707106781186548));
#1207=DIRECTION('',(0.707106781186548,0.,-0.707106781186548));
#1208=DIRECTION('',(0.,-1.,0.));
#1209=DIRECTION('',(-0.633687274224642,0.443712606279657,-0.633687274224642));
#1210=DIRECTION('',(0.707106781186548,0.,0.707106781186548));
#1211=DIRECTION('',(0.,1.,0.));
#1212=DIRECTION('',(-0.633687274224642,-0.443712606279657,0.633687274224642));
#1213=DIRECTION('',(0.,0.819152044288993,0.573576436351045));
#1214=DIRECTION('',(-1.,0.,0.));
#1215=DIRECTION('',(0.,0.,-1.));
#1216=DIRECTION('',(-1.,0.,0.));
#1217=DIRECTION('',(0.,0.,-1.));
#1218=DIRECTION('',(-1.,0.,0.));
#1219=DIRECTION('',(0.,0.,-1.));
#1220=DIRECTION('',(-1.,0.,0.));
#1221=DIRECTION('',(0.,0.,-1.));
#1222=DIRECTION('',(-1.,0.,0.));
#1223=CARTESIAN_POINT('',(0.,0.,0.));
#1224=CARTESIAN_POINT('',(0.068,0.0209589937300869,0.0575843620079047));
#1225=CARTESIAN_POINT('',(-0.067,0.0209589937300869,0.0575843620079047));
#1226=CARTESIAN_POINT('',(-0.067,0.0405499068868711,0.111409953532666));
#1227=CARTESIAN_POINT('',(-0.067,0.000342020143325652,0.000939692620785908));
#1228=CARTESIAN_POINT('',(0.068,0.000342020143325652,0.000939692620785908));
#1229=CARTESIAN_POINT('',(0.067,0.000342020143325649,0.000939692620785915));
#1230=CARTESIAN_POINT('',(0.067,0.0405499068868711,0.111409953532666));
#1231=CARTESIAN_POINT('',(0.067,0.0405499068868711,0.111409953532666));
#1232=CARTESIAN_POINT('',(0.064,0.0405499068868711,0.111409953532666));
#1233=CARTESIAN_POINT('',(0.064,0.0415759673168481,0.114229031395023));
#1234=CARTESIAN_POINT('',(-0.064,0.0415759673168481,0.114229031395023));
#1235=CARTESIAN_POINT('',(-0.064,0.0415759673168481,0.114229031395023));
#1236=CARTESIAN_POINT('',(-0.064,0.0405499068868711,0.111409953532666));
#1237=CARTESIAN_POINT('',(0.,0.0407209169585339,0.111879799843059));
#1238=CARTESIAN_POINT('',(-0.060452,0.0407209169585339,0.111879799843059));
#1239=CARTESIAN_POINT('',(0.060452,0.0407209169585339,0.111879799843059));
#1240=CARTESIAN_POINT('',(0.060452,0.0275531414404956,0.0757016339428012));
#1241=CARTESIAN_POINT('',(0.060452,0.0143853659224574,0.0395234680425436));
#1242=CARTESIAN_POINT('',(-1.04083408558608E-17,0.0143853659224574,0.0395234680425437));
#1243=CARTESIAN_POINT('',(-0.060452,0.0143853659224574,0.0395234680425437));
#1244=CARTESIAN_POINT('',(-0.060452,0.0275531414404956,0.0757016339428012));
#1245=CARTESIAN_POINT('',(0.,0.0472742353986534,0.113219209198853));
#1246=CARTESIAN_POINT('',(0.063,0.0202033410544267,0.0388425382636483));
#1247=CARTESIAN_POINT('',(0.063,0.0197758158752696,0.037667922487666));
#1248=CARTESIAN_POINT('',(-0.063,0.0456154377035239,0.108661699988041));
#1249=CARTESIAN_POINT('',(-0.063,0.0451879125243668,0.107487084212059));
#1250=CARTESIAN_POINT('',(-0.063,0.0202033410544267,0.0388425382636483));
#1251=CARTESIAN_POINT('',(-0.063,0.0197758158752696,0.037667922487666));
#1252=CARTESIAN_POINT('',(0.063,0.0456154377035239,0.108661699988041));
#1253=CARTESIAN_POINT('',(0.063,0.0451879125243668,0.107487084212059));
#1254=CARTESIAN_POINT('',(0.,0.0472742353986534,0.113219209198853));
#1255=CARTESIAN_POINT('',(-0.064,0.0472742353986534,0.113219209198853));
#1256=CARTESIAN_POINT('',(0.064,0.0472742353986534,0.113219209198853));
#1257=CARTESIAN_POINT('',(0.064,0.0459061548253507,0.109460438715709));
#1258=CARTESIAN_POINT('',(0.068,0.0459061548253507,0.109460438715709));
#1259=CARTESIAN_POINT('',(0.068,0.0329093893789753,0.0737521191258449));
#1260=CARTESIAN_POINT('',(0.068,0.0185445433592972,0.0342850290528367));
#1261=CARTESIAN_POINT('',(-2.77555756156289E-17,0.0185445433592972,0.0342850290528368));
#1262=CARTESIAN_POINT('',(-0.068,0.0185445433592972,0.0342850290528368));
#1263=CARTESIAN_POINT('',(-0.068,0.0329093893789753,0.0737521191258449));
#1264=CARTESIAN_POINT('',(-0.068,0.0459061548253507,0.109460438715709));
#1265=CARTESIAN_POINT('',(-0.064,0.0459061548253507,0.109460438715709));
#1266=CARTESIAN_POINT('',(0.,0.0460771648970135,0.109930285026102));
#1267=CARTESIAN_POINT('',(-0.060452,0.0460771648970135,0.109930285026102));
#1268=CARTESIAN_POINT('',(0.060452,0.0460771648970135,0.109930285026102));
#1269=CARTESIAN_POINT('',(-0.060452,0.0472742353986534,0.113219209198853));
#1270=CARTESIAN_POINT('',(-0.060452,0.019741613860937,0.0375739532255874));
#1271=CARTESIAN_POINT('',(0.,0.019741613860937,0.0375739532255874));
#1272=CARTESIAN_POINT('',(0.060452,0.019741613860937,0.0375739532255874));
#1273=CARTESIAN_POINT('',(0.060452,0.0472742353986534,0.113219209198853));
#1274=CARTESIAN_POINT('',(0.068,0.0385599961820371,0.027));
#1275=CARTESIAN_POINT('',(0.068,0.0272836847326062,0.031104241719908));
#1276=CARTESIAN_POINT('',(0.067,0.0272836847326062,0.031104241719908));
#1277=CARTESIAN_POINT('',(-0.067,0.0272836847326062,0.031104241719908));
#1278=CARTESIAN_POINT('',(0.067,0.0385599961820371,0.027));
#1279=CARTESIAN_POINT('',(0.067,0.0385599961820371,0.015));
#1280=CARTESIAN_POINT('',(0.068,0.0385599961820371,0.015));
#1281=CARTESIAN_POINT('',(-0.067,0.0385599961820371,0.015));
#1282=CARTESIAN_POINT('',(-0.067,0.0385599961820371,0.027));
#1283=CARTESIAN_POINT('',(0.068,0.0445961114294135,0.114193966607331));
#1284=CARTESIAN_POINT('',(-0.064,0.0419179874601737,0.115168724015809));
#1285=CARTESIAN_POINT('',(-0.064,0.0428576800809596,0.114826703872484));
#1286=CARTESIAN_POINT('',(0.064,0.0428576800809596,0.114826703872484));
#1287=CARTESIAN_POINT('',(0.064,0.0428576800809596,0.114826703872484));
#1288=CARTESIAN_POINT('',(0.064,0.0445961114294135,0.114193966607331));
#1289=CARTESIAN_POINT('',(0.068,0.05,0.));
#1290=CARTESIAN_POINT('',(-0.053,0.015,0.));
#1291=CARTESIAN_POINT('',(-0.047,0.015,0.));
#1292=CARTESIAN_POINT('',(0.053,0.015,0.));
#1293=CARTESIAN_POINT('',(0.059,0.015,0.));
#1294=CARTESIAN_POINT('',(-0.053,0.085,0.));
#1295=CARTESIAN_POINT('',(-0.047,0.085,0.));
#1296=CARTESIAN_POINT('',(0.053,0.085,0.));
#1297=CARTESIAN_POINT('',(0.059,0.085,0.));
#1298=CARTESIAN_POINT('',(0.067,0.00106417777247589,0.));
#1299=CARTESIAN_POINT('',(0.067,0.096,0.));
#1300=CARTESIAN_POINT('',(0.067,0.00099999999999998,0.));
#1301=CARTESIAN_POINT('',(0.068,0.00099999999999998,0.));
#1302=CARTESIAN_POINT('',(-0.067,0.00099999999999998,0.));
#1303=CARTESIAN_POINT('',(-0.067,0.05,0.));
#1304=CARTESIAN_POINT('',(-0.067,0.096,0.));
#1305=CARTESIAN_POINT('',(-0.064,0.096,0.));
#1306=CARTESIAN_POINT('',(-0.064,0.099,0.));
#1307=CARTESIAN_POINT('',(0.068,0.099,0.));
#1308=CARTESIAN_POINT('',(0.064,0.099,0.));
#1309=CARTESIAN_POINT('',(0.064,0.096,0.));
#1310=CARTESIAN_POINT('',(0.068,0.1,0.0075));
#1311=CARTESIAN_POINT('',(0.064,0.1,0.));
#1312=CARTESIAN_POINT('',(0.064,0.1,0.014));
#1313=CARTESIAN_POINT('',(0.064,0.1,0.001));
#1314=CARTESIAN_POINT('',(0.068,0.1,0.001));
#1315=CARTESIAN_POINT('',(-0.064,0.1,0.001));
#1316=CARTESIAN_POINT('',(-0.064,0.1,0.0075));
#1317=CARTESIAN_POINT('',(-0.064,0.1,0.014));
#1318=CARTESIAN_POINT('',(0.068,0.1,0.014));
#1319=CARTESIAN_POINT('',(0.068,0.0692799980910185,0.015));
#1320=CARTESIAN_POINT('',(0.067,0.096,0.015));
#1321=CARTESIAN_POINT('',(0.067,0.096,0.015));
#1322=CARTESIAN_POINT('',(0.064,0.096,0.015));
#1323=CARTESIAN_POINT('',(0.064,0.099,0.015));
#1324=CARTESIAN_POINT('',(0.068,0.099,0.015));
#1325=CARTESIAN_POINT('',(-0.064,0.099,0.015));
#1326=CARTESIAN_POINT('',(-0.064,0.096,0.015));
#1327=CARTESIAN_POINT('',(-0.067,0.096,0.015));
#1328=CARTESIAN_POINT('',(-0.067,0.0692799980910185,0.015));
#1329=CARTESIAN_POINT('',(0.068,0.05,0.0575843620079047));
#1330=CARTESIAN_POINT('',(0.068,0.000939692620785893,-0.000342020143325663));
#1331=CARTESIAN_POINT('',(0.068,0.041489599507657,0.11106793338934));
#1332=CARTESIAN_POINT('',(0.068,0.0014281480067421,0.001));
#1333=CARTESIAN_POINT('',(0.068,0.096,0.001));
#1334=CARTESIAN_POINT('',(0.068,0.096,0.001));
#1335=CARTESIAN_POINT('',(0.068,0.096,0.015));
#1336=CARTESIAN_POINT('',(0.068,0.096,0.014));
#1337=CARTESIAN_POINT('',(0.068,0.0385599961820371,0.014));
#1338=CARTESIAN_POINT('',(0.068,0.0385599961820371,0.014));
#1339=CARTESIAN_POINT('',(0.068,0.0385599961820371,0.027));
#1340=CARTESIAN_POINT('',(0.068,0.0263439921118203,0.0314462618632336));
#1341=CARTESIAN_POINT('',(0.068,0.0185426639740557,0.0342857130931234));
#1342=CARTESIAN_POINT('',(0.068,0.0661937607596528,0.102076354031101));
#1343=CARTESIAN_POINT('',(-0.068,0.05,0.0575843620079047));
#1344=CARTESIAN_POINT('',(-0.068,0.096,0.0575843620079047));
#1345=CARTESIAN_POINT('',(-0.068,0.096,0.014));
#1346=CARTESIAN_POINT('',(-0.068,0.096,0.001));
#1347=CARTESIAN_POINT('',(-0.068,0.05,0.001));
#1348=CARTESIAN_POINT('',(-0.068,0.0014281480067421,0.001));
#1349=CARTESIAN_POINT('',(-0.068,0.0252958387480041,0.0665759413661436));
#1350=CARTESIAN_POINT('',(-0.068,0.041489599507657,0.11106793338934));
#1351=CARTESIAN_POINT('',(-0.068,0.0459061548253507,0.109460438715709));
#1352=CARTESIAN_POINT('',(-0.068,0.0185426639740557,0.0342857130931234));
#1353=CARTESIAN_POINT('',(-0.068,0.0263439921118203,0.0314462618632336));
#1354=CARTESIAN_POINT('',(-0.068,0.0385599961820371,0.027));
#1355=CARTESIAN_POINT('',(-0.068,0.0385599961820371,0.014));
#1356=CARTESIAN_POINT('',(-0.068,0.05,0.014));
#1357=CARTESIAN_POINT('',(-2.77555756156289E-17,0.0185426639740557,0.0342857130931234));
#1358=CARTESIAN_POINT('',(0.055,0.0385599961820371,0.027));
#1359=CARTESIAN_POINT('',(-0.055,0.0385599961820371,0.027));
#1360=CARTESIAN_POINT('',(0.,0.0642132324781816,0.103329296259917));
#1361=CARTESIAN_POINT('',(0.060452,0.0642132324781816,0.103329296259917));
#1362=CARTESIAN_POINT('',(-0.060452,0.0642132324781816,0.103329296259917));
#1363=CARTESIAN_POINT('',(-0.060452,0.0510454569601433,0.0671511303596595));
#1364=CARTESIAN_POINT('',(-0.060452,0.0378776814421051,0.030972964459402));
#1365=CARTESIAN_POINT('',(-1.04083408558608E-17,0.0378776814421051,0.030972964459402));
#1366=CARTESIAN_POINT('',(0.060452,0.0378776814421051,0.030972964459402));
#1367=CARTESIAN_POINT('',(0.060452,0.0510454569601433,0.0671511303596595));
#1368=CARTESIAN_POINT('',(0.06425,0.0409169745995943,0.11037180070467));
#1369=CARTESIAN_POINT('',(0.063,0.0409169745995943,0.11037180070467));
#1370=CARTESIAN_POINT('',(0.063,0.0404894494204373,0.109197184928687));
#1371=CARTESIAN_POINT('',(0.063,0.0456154377035239,0.108661699988041));
#1372=CARTESIAN_POINT('',(-0.06175,0.0155048779504971,0.0405526389802767));
#1373=CARTESIAN_POINT('',(-0.063,0.0155048779504971,0.0405526389802767));
#1374=CARTESIAN_POINT('',(-0.063,0.0150773527713401,0.0393780232042943));
#1375=CARTESIAN_POINT('',(-0.063,0.0202033410544267,0.0388425382636483));
#1376=CARTESIAN_POINT('',(-0.06175,0.0409169745995943,0.11037180070467));
#1377=CARTESIAN_POINT('',(-0.063,0.0409169745995943,0.11037180070467));
#1378=CARTESIAN_POINT('',(-0.063,0.0404894494204373,0.109197184928687));
#1379=CARTESIAN_POINT('',(-0.063,0.0456154377035239,0.108661699988041));
#1380=CARTESIAN_POINT('',(0.06425,0.0155048779504971,0.0405526389802767));
#1381=CARTESIAN_POINT('',(0.063,0.0155048779504971,0.0405526389802767));
#1382=CARTESIAN_POINT('',(0.063,0.0150773527713401,0.0393780232042943));
#1383=CARTESIAN_POINT('',(0.063,0.0202033410544267,0.0388425382636483));
#1384=CARTESIAN_POINT('',(0.053,0.085,0.003));
#1385=CARTESIAN_POINT('',(0.053,0.085,0.001));
#1386=CARTESIAN_POINT('',(0.058,0.085,0.001));
#1387=CARTESIAN_POINT('',(0.053,0.085,0.003));
#1388=CARTESIAN_POINT('',(0.048,0.085,0.003));
#1389=CARTESIAN_POINT('',(0.,0.05,0.003));
#1390=CARTESIAN_POINT('',(-0.053,0.015,0.003));
#1391=CARTESIAN_POINT('',(-0.053,0.015,0.001));
#1392=CARTESIAN_POINT('',(-0.048,0.015,0.001));
#1393=CARTESIAN_POINT('',(-0.053,0.015,0.003));
#1394=CARTESIAN_POINT('',(-0.058,0.015,0.003));
#1395=CARTESIAN_POINT('',(0.,0.05,0.003));
#1396=CARTESIAN_POINT('',(0.053,0.015,0.003));
#1397=CARTESIAN_POINT('',(0.053,0.015,0.001));
#1398=CARTESIAN_POINT('',(0.058,0.015,0.001));
#1399=CARTESIAN_POINT('',(0.053,0.015,0.003));
#1400=CARTESIAN_POINT('',(0.048,0.015,0.003));
#1401=CARTESIAN_POINT('',(0.,0.05,0.003));
#1402=CARTESIAN_POINT('',(-0.053,0.085,0.003));
#1403=CARTESIAN_POINT('',(-0.053,0.085,0.001));
#1404=CARTESIAN_POINT('',(-0.048,0.085,0.001));
#1405=CARTESIAN_POINT('',(-0.053,0.085,0.003));
#1406=CARTESIAN_POINT('',(-0.058,0.085,0.003));
#1407=CARTESIAN_POINT('',(0.,0.05,0.003));
#1408=CARTESIAN_POINT('',(-0.064,0.096,0.0075));
#1409=CARTESIAN_POINT('',(-0.064,0.096,0.001));
#1410=CARTESIAN_POINT('',(-0.064,0.096,0.014));
#1411=CARTESIAN_POINT('',(0.064,0.096,0.0575843620079047));
#1412=CARTESIAN_POINT('',(0.064,0.096,0.001));
#1413=CARTESIAN_POINT('',(0.064,0.096,0.014));
#1414=CARTESIAN_POINT('',(0.064,0.0432280308561108,0.110435196124188));
#1415=CARTESIAN_POINT('',(0.064,0.041489599507657,0.11106793338934));
#1416=CARTESIAN_POINT('',(-0.064,0.0661937607596528,0.102076354031101));
#1417=CARTESIAN_POINT('',(-0.064,0.041489599507657,0.11106793338934));
#1418=CARTESIAN_POINT('',(0.068,0.0252958387480041,0.0665759413661436));
#1419=CARTESIAN_POINT('',(0.0480610870408915,-0.0129191494761397,0.0198786055798945));
#1420=CARTESIAN_POINT('',(0.067469846310393,0.000671010071662807,0.000469846310392947));
#1421=CARTESIAN_POINT('',(0.092671346248723,0.0366624819755005,0.025671346248723));
#1422=CARTESIAN_POINT('',(0.067,0.0405499068868711,0.111409953532666));
#1423=CARTESIAN_POINT('',(0.064,0.0405499068868711,0.111409953532666));
#1424=CARTESIAN_POINT('',(0.064,0.0415759673168481,0.114229031395023));
#1425=CARTESIAN_POINT('',(0.068,0.0415759673168481,0.114229031395023));
#1426=CARTESIAN_POINT('',(-0.064,0.0415759673168481,0.114229031395023));
#1427=CARTESIAN_POINT('',(-0.064,0.0405499068868711,0.111409953532666));
#1428=CARTESIAN_POINT('',(-0.067,0.0405499068868711,0.111409953532666));
#1429=CARTESIAN_POINT('',(-0.067,0.0209589937300869,0.0575843620079047));
#1430=CARTESIAN_POINT('',(-0.0886647097092581,0.0309404119879233,0.021664709709258));
#1431=CARTESIAN_POINT('',(-0.067469846310393,0.000671010071662818,0.000469846310392954));
#1432=CARTESIAN_POINT('',(-0.0500507696070463,-0.0115259587446736,0.0178889230137396));
#1433=CARTESIAN_POINT('',(-0.068,0.0385599961820371,0.027));
#1434=CARTESIAN_POINT('',(-0.068,0.0385599961820371,0.014));
#1435=CARTESIAN_POINT('',(-0.067,0.0692799980910185,0.015));
#1436=CARTESIAN_POINT('',(-0.068,0.096,0.014));
#1437=CARTESIAN_POINT('',(-0.064,0.096,0.015));
#1438=CARTESIAN_POINT('',(-0.064,0.1,0.014));
#1439=CARTESIAN_POINT('',(0.068,0.099,0.015));
#1440=CARTESIAN_POINT('',(0.064,0.1,0.014));
#1441=CARTESIAN_POINT('',(0.064,0.096,0.015));
#1442=CARTESIAN_POINT('',(0.068,0.096,0.014));
#1443=CARTESIAN_POINT('',(0.068,0.05,0.014));
#1444=CARTESIAN_POINT('',(0.068,0.0385599961820371,0.014));
#1445=CARTESIAN_POINT('',(0.067,0.0385599961820371,0.027));
#1446=CARTESIAN_POINT('',(0.068,0.1,0.001));
#1447=CARTESIAN_POINT('',(-0.064,0.1,0.001));
#1448=CARTESIAN_POINT('',(0.064,0.099,0.));
#1449=CARTESIAN_POINT('',(0.064,0.096,0.));
#1450=CARTESIAN_POINT('',(0.067,0.096,0.));
#1451=CARTESIAN_POINT('',(-0.064,0.096,0.));
#1452=CARTESIAN_POINT('',(-0.068,0.096,0.001));
#1453=CARTESIAN_POINT('',(0.068,0.05,0.001));
#1454=CARTESIAN_POINT('',(0.0674015595615143,0.000718824967987512,0.000401559561514257));
#1455=CARTESIAN_POINT('',(-0.067,0.05,0.));
#1456=CARTESIAN_POINT('',(-0.0532224234313891,0.0106471629716028,-0.0137775765686109));
#1457=CARTESIAN_POINT('',(0.068,0.00099999999999998,0.));
#1458=CARTESIAN_POINT('',(-0.053,0.015,0.001));
#1459=CARTESIAN_POINT('',(0.053,0.015,0.001));
#1460=CARTESIAN_POINT('',(-0.053,0.085,0.001));
#1461=CARTESIAN_POINT('',(0.053,0.085,0.001));
#1462=MECHANICAL_DESIGN_GEOMETRIC_PRESENTATION_REPRESENTATION('',(#857),
#1463);
#1463=(
GEOMETRIC_REPRESENTATION_CONTEXT(3)
GLOBAL_UNCERTAINTY_ASSIGNED_CONTEXT((#1464))
GLOBAL_UNIT_ASSIGNED_CONTEXT((#1467,#1466,#1465))
REPRESENTATION_CONTEXT('Part 1','TOP_LEVEL_ASSEMBLY_PART')
);
#1464=UNCERTAINTY_MEASURE_WITH_UNIT(LENGTH_MEASURE(1.E-8),#1467,
'DISTANCE_ACCURACY_VALUE','Maximum Tolerance applied to model');
#1465=(
NAMED_UNIT(*)
SI_UNIT($,.STERADIAN.)
SOLID_ANGLE_UNIT()
);
#1466=(
NAMED_UNIT(*)
PLANE_ANGLE_UNIT()
SI_UNIT($,.RADIAN.)
);
#1467=(
LENGTH_UNIT()
NAMED_UNIT(*)
SI_UNIT($,.METRE.)
);
#1468=PRODUCT_DEFINITION_SHAPE('','',#1469);
#1469=PRODUCT_DEFINITION('','',#1471,#1470);
#1470=PRODUCT_DEFINITION_CONTEXT('',#1477,'design');
#1471=PRODUCT_DEFINITION_FORMATION_WITH_SPECIFIED_SOURCE('','',#1473,
 .NOT_KNOWN.);
#1472=PRODUCT_RELATED_PRODUCT_CATEGORY('','',(#1473));
#1473=PRODUCT('Part 1','Part 1','Part 1',(#1475));
#1474=PRODUCT_CATEGORY('','');
#1475=PRODUCT_CONTEXT('',#1477,'mechanical');
#1476=APPLICATION_PROTOCOL_DEFINITION('international standard',
'ap242_managed_model_based_3d_engineering',2020,#1477);
#1477=APPLICATION_CONTEXT('managed model based 3d engineering');
ENDSEC;
END-ISO-10303-21;
